<svg t="1702388192663" class="icon" viewBox="0 0 1026 1024" version="1.1" xmlns="http://www.w3.org/2000/svg" p-id="5598" width="200" height="200"><path d="M643.380496 880.363632l4.70096-116 184 0 184 0 4.70096 116 4.700944 116-193.401904 0-193.401904 0 4.700944-116zm214.846064 0c-2.669024-73.578064-9.577056-100-26.145104-100-16.568048 0-23.47608 26.421936-26.145104 100-3.1972 88.139104-0.096 100 26.145104 100 26.241264 0 29.342304-11.860896 26.145104-100zm-74.145104-4c0-17.333328-17.777776-24-64-24-46.222224 0-64 6.666672-64 24 0 17.333328 17.777776 24 64 24 46.222224 0 64-6.666672 64-24zm224 0c0-17.333328-17.777776-24-64-24-46.222224 0-64 6.666672-64 24 0 17.333328 17.777776 24 64 24 46.222224 0 64-6.666672 64-24zM241.842592 958.03552C169.370016 917.867056 161.254016 879.715952 160.648416 576.363632l-0.56696-284-40.72728 0c-57.118048 0-119.27272-66.871712-119.27272-128.324592 0-52.19296 24.545008-111.498848 54.395264-131.4304 27.50936-18.368488 599.389344-14.556526 634.490992 4.229296 62.548768 33.475088 79.113744 98.536512 79.113744 310.731136 0 123.196368-6.183296 200.79456-16 200.79456-9.78144 0-16-74.93152-16-192.79456 0-199.974704-17.918096-272.238288-72.716832-293.266544-34.542848-13.255328-33.401856-13.534496-62.140304 15.203968-34.491504 34.491488-31.544896 106.4028 6.333056 154.556816 17.31176 22.00832 26.91176 44.579312 21.333328 50.157728-5.578416 5.578432-106.142576 10.142592-223.47592 10.142592l-213.333328 0 0 281.230768 0 281.230768 46.769232 46.769232c45.180928 45.180928 51.973008 46.769232 200 46.769232 91.487184 0 153.230768 6.44712 153.230768 16 0 24.64624-304.273328 19.14864-350.238864-6.328112zm310.238864-809.671888l0-96-235.092736 0c-224.800288 0-236.183184 1.5568-260 35.560096-28.955888 41.34032-31.655152 81.935088-8.34432 125.49176 15.261152 28.515728 35.696208 30.948144 260 30.948144l243.437056 0 0-96zm-280 640c0-8.8 14.4-16 32-16 17.6 0 32 7.2 32 16 0 8.8-14.4 16-32 16-17.6 0-32-7.2-32-16zm112 0c0-8.8 32.4-16 72-16 39.6 0 72 7.2 72 16 0 8.8-32.4 16-72 16-39.6 0-72-7.2-72-16zm297.204528-78.669008c-22.142176-24.466832-24.147664-37.409504-9.916848-64 21.993552-41.095344 51.466816-42.4868 86.232512-4.071136 39.247232 43.367696 34.634752 79.079872-5.520192 42.740144-38.571584-34.9068-42.795056-14.448096-5.520192 26.740144 24.81456 27.419792 24.467408 29.259856-5.520208 29.259856-17.6 0-44.489776-13.801056-59.755072-30.669008zm118.795472 14.669008c0-8.8 14.4-16 32-16 17.6 0 32 7.2 32 16 0 8.8-14.4 16-32 16-17.6 0-32-7.2-32-16zm117.520192-13.259856c37.274864-41.18824 33.051392-61.646944-5.520192-26.740144-26.240176 23.74704-32 24.639728-32 4.9596 0-27.350144 49.440128-76.9596 76.696912-76.9596 9.997456 0 26.2044 14.998944 36.015408 33.330992 14.230816 26.590496 12.225328 39.533168-9.916848 64-15.265296 16.867952-42.155072 30.669008-59.755072 30.669008-29.987616 0-30.334768-1.840064-5.520208-29.259856zM272.081456 676.363632c0-8.8 14.4-16 32-16 17.6 0 32 7.2 32 16 0 8.8-14.4 16-32 16-17.6 0-32-7.2-32-16zm112 0c0-8.888896 42.666672-16 96-16 53.333328 0 96 7.111104 96 16 0 8.888896-42.666672 16-96 16-53.333328 0-96-7.111104-96-16zm-108-116c3.666672-11 16.266672-20 28-20 11.733328 0 24.333328 9 28 20 3.965808 11.89744-7.377776 20-28 20-20.622224 0-31.965808-8.10256-28-20zm111.930736 0c7.220256-21.88816 169.3684-36.162672 232.056944-20.428848 74.466464 18.689888 15.175824 40.428848-110.26528 40.428848-95.5632 0-126.702272-5.113504-121.791664-20zm-104.930736-102.333328c-20.865584-20.865584-10.903872-37.666672 22.333328-37.666672 18.619888 0 30.537776 8.386672 27 19-7.793824 23.381488-34.509776 33.490224-49.333328 18.666672zm111.666672-0.33328c-28.350448-28.350496-0.34576-37.333392 116.389056-37.333392 120.673872 0 174.470384 17.246128 119.543776 38.32344-34.182464 13.11704-222.616464 12.326272-235.932832-0.99008z" p-id="5599"></path></svg>